<?xml version="1.0" encoding="UTF-8" standalone="no"?> <svg width="512" height="512" viewBox="0 0 512 512" fill="none" xmlns="http://www.w3.org/2000/svg">
<path d="M80 264H112C113.051 264 114.091 263.793 115.062 263.391C116.032 262.989 116.914 262.4 117.657 261.657C118.4 260.914 118.989 260.032 119.391 259.061C119.793 258.091 120 257.051 120 256V224C120 222.949 119.793 221.909 119.391 220.938C118.989 219.968 118.4 219.086 117.657 218.343C116.914 217.6 116.032 217.011 115.062 216.609C114.091 216.207 113.051 216 112 216H80C78.9494 216 77.9091 216.207 76.9385 216.609C75.9679 217.011 75.086 217.6 74.3431 218.343C73.6002 219.086 73.0109 219.968 72.6089 220.938C72.2069 221.909 72 222.949 72 224V256C72 257.051 72.2069 258.091 72.6089 259.061C73.0109 260.032 73.6002 260.914 74.3431 261.657C75.086 262.4 75.9679 262.989 76.9385 263.391C77.9091 263.793 78.9494 264 80 264V264ZM88 232H104V248H88V232Z" fill="black"/>
<path d="M104 288V320C104 321.051 104.207 322.091 104.609 323.061C105.011 324.032 105.6 324.914 106.343 325.657C107.086 326.4 107.968 326.989 108.938 327.391C109.909 327.793 110.949 328 112 328H144C145.051 328 146.091 327.793 147.062 327.391C148.032 326.989 148.914 326.4 149.657 325.657C150.4 324.914 150.989 324.032 151.391 323.061C151.793 322.091 152 321.051 152 320V288C152 286.949 151.793 285.909 151.391 284.939C150.989 283.968 150.4 283.086 149.657 282.343C148.914 281.6 148.032 281.011 147.062 280.609C146.091 280.207 145.051 280 144 280H112C110.949 280 109.909 280.207 108.938 280.609C107.968 281.011 107.086 281.6 106.343 282.343C105.6 283.086 105.011 283.968 104.609 284.939C104.207 285.909 104 286.949 104 288V288ZM120 296H136V312H120V296Z" fill="black"/>
<path d="M80 392H112C113.051 392 114.091 391.793 115.062 391.391C116.032 390.989 116.914 390.4 117.657 389.657C118.4 388.914 118.989 388.032 119.391 387.061C119.793 386.091 120 385.051 120 384V352C120 350.949 119.793 349.909 119.391 348.939C118.989 347.968 118.4 347.086 117.657 346.343C116.914 345.6 116.032 345.011 115.062 344.609C114.091 344.207 113.051 344 112 344H80C78.9494 344 77.9091 344.207 76.9385 344.609C75.9679 345.011 75.086 345.6 74.3431 346.343C73.6002 347.086 73.0109 347.968 72.6089 348.939C72.2069 349.909 72 350.949 72 352V384C72 385.051 72.2069 386.091 72.6089 387.061C73.0109 388.032 73.6002 388.914 74.3431 389.657C75.086 390.4 75.9679 390.989 76.9385 391.391C77.9091 391.793 78.9494 392 80 392V392ZM88 360H104V376H88V360Z" fill="black"/>
<path d="M208 120H304C305.051 120 306.091 119.793 307.061 119.391C308.032 118.989 308.914 118.4 309.657 117.657C310.4 116.914 310.989 116.032 311.391 115.062C311.793 114.091 312 113.051 312 112V64C312 62.9494 311.793 61.9091 311.391 60.9385C310.989 59.9679 310.4 59.086 309.657 58.3431C308.914 57.6002 308.032 57.0109 307.061 56.6089C306.091 56.2069 305.051 56 304 56H208C206.949 56 205.909 56.2069 204.938 56.6089C203.968 57.0109 203.086 57.6002 202.343 58.3431C201.6 59.086 201.011 59.9679 200.609 60.9385C200.207 61.9091 200 62.9494 200 64V112C200 113.051 200.207 114.091 200.609 115.062C201.011 116.032 201.6 116.914 202.343 117.657C203.086 118.4 203.968 118.989 204.938 119.391C205.909 119.793 206.949 120 208 120V120ZM216 72H296V104H216V72Z" fill="black"/>
<path d="M208 200H256C257.051 200 258.091 199.793 259.061 199.391C260.032 198.989 260.914 198.4 261.657 197.657C262.4 196.914 262.989 196.032 263.391 195.062C263.793 194.091 264 193.051 264 192V144C264 142.949 263.793 141.909 263.391 140.938C262.989 139.968 262.4 139.086 261.657 138.343C260.914 137.6 260.032 137.011 259.061 136.609C258.091 136.207 257.051 136 256 136H208C206.949 136 205.909 136.207 204.938 136.609C203.968 137.011 203.086 137.6 202.343 138.343C201.6 139.086 201.011 139.968 200.609 140.938C200.207 141.909 200 142.949 200 144V192C200 193.051 200.207 194.091 200.609 195.062C201.011 196.032 201.6 196.914 202.343 197.657C203.086 198.4 203.968 198.989 204.938 199.391C205.909 199.793 206.949 200 208 200V200ZM216 152H248V184H216V152Z" fill="black"/>
<path d="M496 192V168C496 166.418 495.531 164.871 494.652 163.555C493.773 162.24 492.523 161.214 491.062 160.609C489.6 160.003 487.991 159.845 486.439 160.154C484.887 160.462 483.462 161.224 482.343 162.343C481.578 163.109 480.793 163.847 480 164.575V104C480 102.949 479.793 101.909 479.391 100.938C478.989 99.9679 478.4 99.086 477.657 98.3431C476.914 97.6002 476.032 97.0109 475.061 96.6089C474.091 96.2069 473.051 96 472 96H344V32H360V16H152V32H168V184H24V200H40V480H16V496H496V480H409.712C455.838 456.116 487.669 408.001 487.998 352.878C488.18 321.935 478.398 291.754 460.098 266.802C471.303 257.819 480.347 246.434 486.561 233.486C492.775 220.539 496.001 206.361 496 192V192ZM480 192C479.976 213.21 471.54 233.544 456.542 248.542C441.544 263.54 421.21 271.976 400 272V272.091C398.825 268.681 396.891 265.583 394.343 263.03L384.97 253.657C382.417 251.109 379.319 249.175 375.909 248H376C376.014 235.274 381.076 223.073 390.075 214.075C399.073 205.076 411.274 200.014 424 200H430.059C447.839 200.048 465.228 194.788 480 184.894V192ZM368 300.687L347.313 280L362.343 264.97C363.845 263.472 365.879 262.631 368 262.631C370.121 262.631 372.155 263.472 373.657 264.97L383.03 274.343C384.528 275.845 385.369 277.879 385.369 280C385.369 282.121 384.528 284.155 383.03 285.657L368 300.687ZM336 360C335.99 368.484 332.616 376.618 326.617 382.617C320.618 388.616 312.484 391.99 304 392C302.538 391.993 301.077 391.888 299.629 391.685L335.685 355.629C335.888 357.077 335.993 358.538 336 360V360ZM218.343 450.343C215.6 453.084 211.88 454.624 208.001 454.623C204.123 454.622 200.404 453.081 197.661 450.339C194.919 447.596 193.378 443.877 193.377 439.999C193.376 436.12 194.916 432.4 197.657 429.657L336 291.313L356.687 312L218.343 450.343ZM216 352C216 349.367 216.08 346.739 216.24 344.116L217.399 346.164C222.226 354.71 228.423 362.406 235.743 368.944L220.167 384.519C217.391 373.903 215.991 362.974 216 352ZM328 32V104C328 105.051 328.207 106.091 328.609 107.062C329.011 108.032 329.6 108.914 330.343 109.657C331.086 110.4 331.968 110.989 332.939 111.391C333.909 111.793 334.949 112 336 112H464V175.771C453.511 181.198 441.869 184.021 430.059 184H424C407.032 184.019 390.765 190.768 378.766 202.766C366.768 214.765 360.019 231.032 360 248H360.091C356.681 249.175 353.583 251.109 351.03 253.657L330.343 274.343L247.083 357.603C240.772 352.105 235.443 345.572 231.324 338.284L218.749 316.06C217.958 314.663 216.766 313.536 215.326 312.826C213.887 312.115 212.267 311.854 210.677 312.077C209.087 312.3 207.601 312.996 206.412 314.074C205.223 315.153 204.386 316.564 204.009 318.125C197.711 344.336 198.852 371.785 207.304 397.383L186.343 418.343C185.513 419.177 184.731 420.057 184 420.979V32H328ZM56 200H168V480H152V416C152 414.949 151.793 413.909 151.391 412.939C150.989 411.968 150.4 411.086 149.657 410.343C148.914 409.6 148.032 409.011 147.062 408.609C146.091 408.207 145.051 408 144 408H80C78.9494 408 77.9091 408.207 76.9385 408.609C75.9679 409.011 75.086 409.6 74.3431 410.343C73.6002 411.086 73.0109 411.968 72.6089 412.939C72.2069 413.909 72 414.949 72 416V480H56V200ZM136 480H88V424H136V480ZM184 480V459.021C184.731 459.943 185.513 460.823 186.343 461.657C189.187 464.501 192.564 466.757 196.279 468.296C199.995 469.835 203.978 470.627 208 470.627C212.022 470.627 216.005 469.835 219.721 468.296C223.436 466.757 226.813 464.501 229.657 461.657L239.863 451.45C250.901 463.019 263.79 472.667 277.999 480H184ZM471.998 352.782C471.582 422.438 414.576 479.506 344.923 479.997C344.617 479.999 344.317 480 344.011 480C326.64 480.016 309.448 476.489 293.486 469.635C277.524 462.781 263.128 452.743 251.177 440.136L286.572 404.741C295.259 408.115 304.739 408.889 313.858 406.97C322.977 405.05 331.341 400.52 337.93 393.93C344.52 387.341 349.05 378.977 350.97 369.858C352.889 360.739 352.115 351.259 348.741 342.572L373.657 317.657L394.343 296.97C396.891 294.417 398.825 291.319 400 287.909V288C416.402 288.018 432.531 283.808 446.831 275.776C463.331 298.045 472.161 325.066 471.998 352.782V352.782Z" fill="black"/>
<path d="M424 376C430.329 376 436.516 374.123 441.778 370.607C447.041 367.091 451.142 362.093 453.564 356.246C455.986 350.399 456.62 343.965 455.385 337.757C454.15 331.55 451.103 325.848 446.627 321.373C442.152 316.897 436.45 313.85 430.243 312.615C424.035 311.38 417.601 312.014 411.754 314.436C405.907 316.858 400.909 320.959 397.393 326.222C393.877 331.484 392 337.671 392 344C392.01 352.484 395.384 360.618 401.383 366.617C407.382 372.616 415.516 375.99 424 376V376ZM424 328C427.165 328 430.258 328.938 432.889 330.696C435.52 332.455 437.571 334.953 438.782 337.877C439.993 340.801 440.31 344.018 439.693 347.121C439.075 350.225 437.551 353.076 435.314 355.314C433.076 357.551 430.225 359.075 427.121 359.693C424.018 360.31 420.801 359.993 417.877 358.782C414.953 357.571 412.455 355.52 410.696 352.889C408.938 350.258 408 347.165 408 344C408.005 339.758 409.692 335.691 412.692 332.692C415.691 329.692 419.758 328.005 424 328V328Z" fill="black"/>
<path d="M392 384C385.671 384 379.484 385.877 374.222 389.393C368.959 392.909 364.858 397.907 362.436 403.754C360.014 409.601 359.38 416.035 360.615 422.243C361.85 428.45 364.897 434.152 369.373 438.627C373.848 443.103 379.55 446.15 385.757 447.385C391.965 448.62 398.399 447.986 404.246 445.564C410.093 443.142 415.091 439.041 418.607 433.778C422.123 428.516 424 422.329 424 416C423.99 407.516 420.616 399.382 414.617 393.383C408.618 387.384 400.484 384.01 392 384V384ZM392 432C388.836 432 385.742 431.062 383.111 429.304C380.48 427.545 378.429 425.047 377.218 422.123C376.007 419.199 375.69 415.982 376.307 412.879C376.925 409.775 378.449 406.924 380.686 404.686C382.924 402.449 385.775 400.925 388.879 400.307C391.982 399.69 395.199 400.007 398.123 401.218C401.047 402.429 403.545 404.48 405.304 407.111C407.062 409.742 408 412.835 408 416C407.995 420.242 406.308 424.309 403.308 427.308C400.309 430.308 396.242 431.995 392 432V432Z" fill="black"/>
<path d="M320 416C315.253 416 310.613 417.408 306.666 420.045C302.72 422.682 299.643 426.43 297.827 430.816C296.01 435.201 295.535 440.027 296.461 444.682C297.387 449.338 299.673 453.614 303.029 456.971C306.386 460.327 310.662 462.613 315.318 463.539C319.973 464.465 324.799 463.99 329.184 462.173C333.57 460.357 337.318 457.28 339.955 453.334C342.592 449.387 344 444.747 344 440C343.993 433.637 341.462 427.537 336.963 423.037C332.463 418.538 326.363 416.007 320 416V416ZM320 448C318.418 448 316.871 447.531 315.555 446.652C314.24 445.773 313.214 444.523 312.609 443.061C312.003 441.6 311.845 439.991 312.154 438.439C312.462 436.887 313.224 435.462 314.343 434.343C315.462 433.224 316.887 432.462 318.439 432.154C319.991 431.845 321.6 432.003 323.061 432.609C324.523 433.214 325.773 434.24 326.652 435.555C327.531 436.871 328 438.418 328 440C327.998 442.121 327.154 444.154 325.654 445.654C324.154 447.154 322.121 447.998 320 448V448Z" fill="black"/>
<path d="M208 296H272C273.051 296 274.091 295.793 275.061 295.391C276.032 294.989 276.914 294.4 277.657 293.657C278.4 292.914 278.989 292.032 279.391 291.061C279.793 290.091 280 289.051 280 288V224C280 222.949 279.793 221.909 279.391 220.938C278.989 219.968 278.4 219.086 277.657 218.343C276.914 217.6 276.032 217.011 275.061 216.609C274.091 216.207 273.051 216 272 216H208C206.949 216 205.909 216.207 204.938 216.609C203.968 217.011 203.086 217.6 202.343 218.343C201.6 219.086 201.011 219.968 200.609 220.938C200.207 221.909 200 222.949 200 224V288C200 289.051 200.207 290.091 200.609 291.061C201.011 292.032 201.6 292.914 202.343 293.657C203.086 294.4 203.968 294.989 204.938 295.391C205.909 295.793 206.949 296 208 296ZM216 232H264V280H216V232Z" fill="black"/>
<path d="M288 152V200C288 201.051 288.207 202.091 288.609 203.062C289.011 204.032 289.6 204.914 290.343 205.657C291.086 206.4 291.968 206.989 292.939 207.391C293.909 207.793 294.949 208 296 208H344C345.051 208 346.091 207.793 347.061 207.391C348.032 206.989 348.914 206.4 349.657 205.657C350.4 204.914 350.989 204.032 351.391 203.062C351.793 202.091 352 201.051 352 200V152C352 150.949 351.793 149.909 351.391 148.938C350.989 147.968 350.4 147.086 349.657 146.343C348.914 145.6 348.032 145.011 347.061 144.609C346.091 144.207 345.051 144 344 144H296C294.949 144 293.909 144.207 292.939 144.609C291.968 145.011 291.086 145.6 290.343 146.343C289.6 147.086 289.011 147.968 288.609 148.938C288.207 149.909 288 150.949 288 152V152ZM304 160H336V192H304V160Z" fill="black"/>
<path d="M404.415 221.212C400.521 224.505 397.393 228.608 395.249 233.235C393.105 237.862 391.996 242.901 392 248H408C408 245.225 408.604 242.484 409.771 239.966C410.938 237.448 412.64 235.215 414.757 233.421C416.874 231.627 419.357 230.316 422.032 229.579C424.708 228.842 427.512 228.696 430.249 229.152L446.685 231.892L449.315 216.109L432.88 213.37C427.85 212.528 422.698 212.793 417.781 214.148C412.865 215.502 408.303 217.913 404.415 221.212V221.212Z" fill="black"/>
</svg>
